<svg width="25" height="24" viewBox="0 0 25 24" fill="none" xmlns="http://www.w3.org/2000/svg">
<path d="M12.75 0.762206V3.12934C14.2828 3.12934 15.7641 3.1016 16.65 3.27729C17.0906 3.36513 17.3484 3.49458 17.4375 3.57318C17.5266 3.65178 17.55 3.64253 17.55 3.94305C17.55 4.00777 17.5641 4.03089 17.475 4.12798C17.3859 4.22507 17.175 4.38688 16.95 4.49784C16.4953 4.71976 16.0125 4.79373 16.0125 4.79373L14.8125 5.05264L15.075 6.23621L15.3375 7.3458C12.3984 7.72492 10.0594 9.28297 8.4 10.8225L7.3875 9.71294C7.56094 9.65746 7.83281 9.56499 7.95 9.52801C8.91094 9.17201 9.15 8.92698 9.15 7.86361H1.95C1.95 9.99496 3.15 10.4527 4.35 10.4527C4.47656 10.4527 4.66875 10.4064 4.8375 10.3787L6.75 12.5979C6.25313 13.2128 6.04688 13.5133 5.85 13.8184C5.75156 13.8138 5.65313 13.7815 5.55 13.7815C2.91094 13.7815 0.75 15.9128 0.75 18.5157C0.75 21.1187 2.91094 23.25 5.55 23.25C8.18906 23.25 10.35 21.1187 10.35 18.5157C10.35 16.8883 9.4875 15.4458 8.2125 14.5952C9.4125 13.051 12.15 10.1429 15.825 9.71294L16.3125 11.8951C14.1938 12.8013 12.75 14.8772 12.75 17.3322C12.75 20.6471 15.3891 23.25 18.75 23.25C22.1109 23.25 24.75 20.6471 24.75 17.3322C24.75 14.0172 22.1109 11.4143 18.75 11.4143C18.7266 11.4143 18.6984 11.4143 18.675 11.4143L17.625 6.75402C17.8172 6.68467 17.8219 6.71241 18.0375 6.60607C18.4406 6.40727 18.8531 6.13912 19.2375 5.7184C19.6219 5.29768 19.95 4.64579 19.95 3.94305C19.95 3.1201 19.6172 2.34338 19.05 1.83481C18.4828 1.32625 17.7844 1.08121 17.1 0.947138C15.7359 0.678987 14.2172 0.762206 12.75 0.762206ZM19.2 13.8184C21.0141 14.0265 22.35 15.469 22.35 17.3322C22.35 19.3433 20.7891 20.8829 18.75 20.8829C16.7109 20.8829 15.15 19.3433 15.15 17.3322C15.15 16.0145 15.8391 14.9095 16.875 14.2993L17.55 17.3322L17.5875 17.5911H17.625C17.7516 18.1089 18.1828 18.5157 18.75 18.5157C19.4109 18.5157 19.95 17.984 19.95 17.3322C19.95 17.2351 19.8984 17.1611 19.875 17.0733H19.9125L19.2 13.8184ZM5.55 16.1486C5.71406 16.1486 5.88281 16.1532 6.0375 16.1856C6.05156 16.1994 6.06094 16.2087 6.075 16.2226C6.10781 16.2318 6.15469 16.2133 6.1875 16.2226C6.225 16.2364 6.2625 16.2503 6.3 16.2596C7.25625 16.5693 7.95 17.4709 7.95 18.5157C7.95 19.8195 6.87188 20.8829 5.55 20.8829C4.22813 20.8829 3.15 19.8195 3.15 18.5157C3.15 17.212 4.22813 16.1486 5.55 16.1486Z" fill="#303030"/>
</svg>
