<svg width="25" height="24" viewBox="0 0 25 24" fill="none" xmlns="http://www.w3.org/2000/svg">
<path d="M12.625 0C9.50854 0 6.89325 2.23295 6.29102 5.21591L8.41357 5.65909C8.81366 3.6733 10.5319 2.18182 12.625 2.18182C15.0171 2.18182 16.9375 4.125 16.9375 6.54545V7.73864C15.6657 6.9929 14.2001 6.54545 12.625 6.54545C7.86188 6.54545 4 10.4531 4 15.2727C4 20.0923 7.86188 24 12.625 24C17.3881 24 21.25 20.0923 21.25 15.2727C21.25 13.0611 20.433 11.0497 19.0938 9.51136V6.54545C19.0938 2.9446 16.1837 0 12.625 0ZM12.625 8.72727C16.1921 8.72727 19.0938 11.6634 19.0938 15.2727C19.0938 18.8821 16.1921 21.8182 12.625 21.8182C9.05792 21.8182 6.15625 18.8821 6.15625 15.2727C6.15625 11.6634 9.05792 8.72727 12.625 8.72727ZM12.625 13.0909C11.4332 13.0909 10.4688 14.0668 10.4688 15.2727C10.4688 16.4787 11.4332 17.4545 12.625 17.4545C13.8168 17.4545 14.7812 16.4787 14.7812 15.2727C14.7812 14.0668 13.8168 13.0909 12.625 13.0909Z" fill="#303030"/>
</svg>
