<svg width="16" height="16" viewBox="0 0 16 16" fill="none" xmlns="http://www.w3.org/2000/svg">
<path fill-rule="evenodd" clip-rule="evenodd" d="M1.14286 9.71428L4.74268 13.3723C5.20649 13.8342 5.94171 13.8273 6.39743 13.357C6.85316 12.8866 6.8622 12.1252 6.41777 11.6434L4 9.14285H14.8571C15.5345 9.14285 16 8.70146 16 7.99999C16 7.29852 15.5345 6.85713 14.8571 6.85713H4L6.41777 4.35661C6.8622 3.87477 6.85316 3.11341 6.39743 2.64303C5.94171 2.17265 5.20649 2.16581 4.74268 2.62764L1.14286 6.28571C0.380952 7.04761 0 7.61904 0 7.99999C0 8.38094 0.380952 8.95237 1.14286 9.71428Z" fill="white"/>
</svg>
